<svg viewBox="0 0 400 300" xmlns="http://www.w3.org/2000/svg">
  <!-- Definir gradientes -->
  <defs>
    <linearGradient id="bookGradient" x1="0%" y1="0%" x2="100%" y2="100%">
      <stop offset="0%" style="stop-color:#2a3855;stop-opacity:1" />
      <stop offset="100%" style="stop-color:#3d4f6b;stop-opacity:1" />
    </linearGradient>
    
    <linearGradient id="lightGradient" x1="0%" y1="0%" x2="100%" y2="100%">
      <stop offset="0%" style="stop-color:#e6b742;stop-opacity:1" />
      <stop offset="100%" style="stop-color:#f4d373;stop-opacity:1" />
    </linearGradient>
    
    <radialGradient id="crossGlow" cx="50%" cy="30%">
      <stop offset="0%" style="stop-color:#e6b742;stop-opacity:0.8" />
      <stop offset="70%" style="stop-color:#e6b742;stop-opacity:0.3" />
      <stop offset="100%" style="stop-color:#e6b742;stop-opacity:0" />
    </radialGradient>
    
    <filter id="shadow" x="-50%" y="-50%" width="200%" height="200%">
      <feDropShadow dx="2" dy="4" stdDeviation="3" flood-color="rgba(0,0,0,0.3)"/>
    </filter>
  </defs>
  
  <!-- Resplandor de la cruz -->
  <ellipse cx="200" cy="80" rx="80" ry="60" fill="url(#crossGlow)" opacity="0.6"/>
  
  <!-- Libro abierto - base -->
  <path d="M80 120 L200 110 L320 120 L320 240 L200 230 L80 240 Z" 
        fill="url(#bookGradient)" 
        filter="url(#shadow)"/>
  
  <!-- Libro abierto - páginas -->
  <path d="M85 125 L195 115 L195 235 L85 245 Z" 
        fill="#f8f9fa" 
        stroke="#e9ecef" 
        stroke-width="1"/>
  
  <path d="M205 115 L315 125 L315 245 L205 235 Z" 
        fill="#f8f9fa" 
        stroke="#e9ecef" 
        stroke-width="1"/>
  
  <!-- Líneas del texto en las páginas -->
  <g stroke="#6b7c93" stroke-width="1.5" opacity="0.6">
    <!-- Página izquierda -->
    <line x1="95" y1="135" x2="185" y2="130"/>
    <line x1="95" y1="145" x2="185" y2="140"/>
    <line x1="95" y1="155" x2="185" y2="150"/>
    <line x1="95" y1="165" x2="185" y2="160"/>
    <line x1="95" y1="175" x2="175" y2="170"/>
    
    <!-- Página derecha -->
    <line x1="215" y1="130" x2="305" y2="135"/>
    <line x1="215" y1="140" x2="305" y2="145"/>
    <line x1="215" y1="150" x2="305" y2="155"/>
    <line x1="215" y1="160" x2="305" y2="165"/>
    <line x1="225" y1="170" x2="305" y2="175"/>
  </g>
  
  <!-- Cruz cristiana -->
  <g transform="translate(200, 80)">
    <!-- Vertical de la cruz -->
    <rect x="-6" y="-40" width="12" height="80" 
          fill="url(#lightGradient)" 
          rx="6" 
          filter="url(#shadow)"/>
    
    <!-- Horizontal de la cruz -->
    <rect x="-25" y="-15" width="50" height="12" 
          fill="url(#lightGradient)" 
          rx="6" 
          filter="url(#shadow)"/>
  </g>
  
  <!-- Rayos de luz emanando de la cruz -->
  <g stroke="url(#lightGradient)" stroke-width="2" opacity="0.7">
    <line x1="200" y1="40" x2="200" y2="25" stroke-linecap="round"/>
    <line x1="220" y1="50" x2="235" y2="35" stroke-linecap="round"/>
    <line x1="230" y1="80" x2="250" y2="80" stroke-linecap="round"/>
    <line x1="220" y1="110" x2="235" y2="125" stroke-linecap="round"/>
    <line x1="180" y1="110" x2="165" y2="125" stroke-linecap="round"/>
    <line x1="170" y1="80" x2="150" y2="80" stroke-linecap="round"/>
    <line x1="180" y1="50" x2="165" y2="35" stroke-linecap="round"/>
  </g>
  
  <!-- Título principal -->
  <text x="200" y="275" 
        font-family="serif" 
        font-size="38" 
        font-weight="bold" 
        text-anchor="middle" 
        fill="#2a3855">
    Lumen Logos
  </text>
  
  <!-- Subtítulo -->
  <text x="200" y="295" 
        font-family="sans-serif" 
        font-size="14" 
        text-anchor="middle" 
        fill="#6b7c93">
    
  </text>
</svg>